
<svg version="1.1" id="Ebene_1" xmlns="http://www.w3.org/2000/svg" xmlns:xlink="http://www.w3.org/1999/xlink" x="0px" y="0px"
    width="100px" height="100px" viewBox="0 0 100 100" enable-background="new 0 0 100 100" xml:space="preserve">
<g transform="translate(0,-952.36218)" display="none">
    <path display="inline" fill="#BC986A" d="M50.1,962.5c-0.2,0-0.4,0.1-0.7,0.2l-36,16c-0.7,0.3-1.2,1-1.2,1.8v44
        c0,0.8,0.5,1.5,1.2,1.8l36,16c0.5,0.2,1.1,0.2,1.6,0l36-16c0.7-0.3,1.2-1,1.2-1.8v-44c0-0.8-0.5-1.5-1.2-1.8l-36-16
        C50.8,962.5,50.5,962.4,50.1,962.5L50.1,962.5z M50.3,966.7l31.1,13.8l-31.1,13.8l-31.1-13.8L50.3,966.7z M16.3,983.5l32,14.2v39.6
    l-32-14.2V983.5L16.3,983.5z M84.3,983.5v39.6l-32,14.2v-39.6L84.3,983.5L84.3,983.5z"/>
</g>
<g id="Ebene_2">
    <path fill="#BC986A" d="M77.6,10.9h-57c-2,0-3.6,1.6-3.6,3.6c0,0,0,0,0,0v65.2C17,87,23,93,30.3,93h37.6c7.4,0,13.3-6,13.3-13.3
        V14.5C81.2,12.5,79.6,10.9,77.6,10.9C77.6,10.9,77.6,10.9,77.6,10.9z M67.8,85.8H30.3c-3.4,0-6.1-2.7-6.1-6.1V30.2h0.1
        c0.2-0.1,0.4-0.2,0.6-0.3c0.2-0.1,0.4-0.3,0.5-0.4c0.2-0.2,0.3-0.3,0.4-0.5c0.1-0.2,0.2-0.4,0.3-0.6c0.1-0.2,0.2-0.4,0.2-0.7
        c0-0.2,0-0.5,0-0.7c0-0.2,0-0.5,0-0.7c0-0.2-0.1-0.4-0.2-0.7c-0.1-0.2-0.2-0.4-0.3-0.6c-0.1-0.2-0.3-0.4-0.4-0.5
        c-0.2-0.2-0.3-0.3-0.5-0.4c-0.2-0.1-0.4-0.2-0.6-0.3h-0.1v-5.4H74v5.4l0,0c-0.9,0.4-1.6,1.1-1.9,1.9c-0.1,0.2-0.2,0.4-0.2,0.7
        c0,0.2,0,0.5,0,0.7c0,0.2,0,0.5,0,0.7c0,0.2,0.1,0.4,0.2,0.7c0.1,0.2,0.2,0.4,0.3,0.6c0.1,0.2,0.3,0.4,0.4,0.5
        c0.2,0.2,0.3,0.3,0.5,0.4c0.2,0.1,0.4,0.2,0.6,0.3l0,0v49.5C74,83.1,71.3,85.8,67.8,85.8L67.8,85.8z M47.4,26.9
        c0,2-1.6,3.6-3.6,3.6c-2,0-3.6-1.6-3.6-3.6c0-2,1.6-3.6,3.6-3.6c2-0.1,3.6,1.5,3.7,3.5C47.5,26.8,47.5,26.8,47.4,26.9L47.4,26.9z
            M36.9,26.9c0,2-1.6,3.6-3.6,3.6c-2,0-3.6-1.6-3.6-3.6c0-2,1.6-3.6,3.6-3.6c2-0.1,3.7,1.5,3.7,3.5c0,0,0,0,0,0L36.9,26.9z
            M57.8,26.9c0,2-1.6,3.6-3.6,3.6c-2,0-3.6-1.6-3.6-3.6c0-2,1.6-3.6,3.6-3.6c2-0.1,3.7,1.5,3.7,3.5c0,0,0,0,0,0L57.8,26.9z
            M68.3,26.9c0,2-1.6,3.6-3.6,3.6c-2,0-3.6-1.6-3.6-3.6c0-2,1.6-3.6,3.6-3.6c2-0.1,3.7,1.5,3.7,3.5c0,0,0,0,0,0L68.3,26.9z"/>
    <g>
        <path fill="#BC986A" d="M31.4,47.6h2.3v4h2.8v-4h2.3V58h-2.3v-4.3h-2.8V58h-2.3V47.6z"/>
        <path fill="#BC986A" d="M40.8,54c0-2.6,2-4.1,4.1-4.1c2.4,0,3.7,1.6,3.7,3.8c0,0.4-0.1,0.8-0.1,1h-6v-1.6h4.4l-0.4,0.4
            c0-1.3-0.5-1.9-1.6-1.9c-1.2,0-1.9,0.8-1.9,2.3c0,1.6,0.9,2.3,2.4,2.3c0.7,0,1.3-0.2,2-0.5l0.8,1.4c-0.9,0.6-2.1,0.9-3.1,0.9
            C42.7,58.1,40.8,56.6,40.8,54z"/>
        <path fill="#BC986A" d="M50.7,50.2l2.2-0.1h4.9v1.8h-7.1V50.2z M52.8,49.9c0-1.8,1-3.2,3.5-3.2c0.9,0,1.7,0.2,2.4,0.4l-0.5,1.7
            c-0.5-0.2-1-0.3-1.6-0.3c-1,0-1.5,0.4-1.5,1.4V58h-2.3V49.9z"/>
        <path fill="#BC986A" d="M59.8,54c0-2.6,2-4.1,4.1-4.1c2.4,0,3.7,1.6,3.7,3.8c0,0.4-0.1,0.8-0.1,1h-6v-1.6h4.4l-0.4,0.4
            c0-1.3-0.5-1.9-1.6-1.9c-1.2,0-1.9,0.8-1.9,2.3c0,1.6,0.9,2.3,2.4,2.3c0.7,0,1.3-0.2,2-0.5l0.8,1.4c-0.9,0.6-2.1,0.9-3.1,0.9
            C61.7,58.1,59.8,56.6,59.8,54z"/>
    </g>
</g>
</svg>
