<svg version="1.1" id="Ebene_1" xmlns="http://www.w3.org/2000/svg" xmlns:xlink="http://www.w3.org/1999/xlink" x="0px" y="0px"
    width="100px" height="100px" viewBox="0 0 100 100" enable-background="new 0 0 100 100" xml:space="preserve" fill="#bc986a">
    <g transform="translate(0,-952.36218)">
        <path fill-rule="evenodd" d="M50.1,962.5c-0.2,0-0.4,0.1-0.7,0.2l-36,16c-0.7,0.3-1.2,1-1.2,1.8v44c0,0.8,0.5,1.5,1.2,1.8l36,16
        c0.5,0.2,1.1,0.2,1.6,0l36-16c0.7-0.3,1.2-1,1.2-1.8v-44c0-0.8-0.5-1.5-1.2-1.8l-36-16C50.8,962.5,50.5,962.4,50.1,962.5
        L50.1,962.5z M50.3,966.7l31.1,13.8l-31.1,13.8l-31.1-13.8L50.3,966.7z M16.3,983.5l32,14.2v39.6l-32-14.2V983.5L16.3,983.5z
            M84.3,983.5v39.6l-32,14.2v-39.6L84.3,983.5L84.3,983.5z"/>
    </g>
</svg>
