<?xml version="1.0" encoding="utf-8"?>
<!-- Generator: Adobe Illustrator 23.1.1, SVG Export Plug-In . SVG Version: 6.00 Build 0)  -->
<svg version="1.1" id="Layer_3" xmlns="http://www.w3.org/2000/svg" xmlns:xlink="http://www.w3.org/1999/xlink" x="0px" y="0px"
	 width="512px" height="512px" viewBox="0 0 512 512" enable-background="new 0 0 512 512" xml:space="preserve">
<g id="Ebene_3">
	<path fill="#BC986A" d="M303.5,471.4H406c3.4,16.4,17.9,28.9,35.4,28.9h14.4c17.4,0,32-12.4,35.4-28.9h7.9c4,0,7.2-3.2,7.2-7.2
		V262.1c0-4-3.2-7.2-7.2-7.2h-65v-14.4h7.2c35.8,0,65-29.1,65-65c0-4-3.2-7.2-7.2-7.2H395.5c13-10.5,21.9-25.9,23.8-43.3h58.2v-14.4
		h-29.7c9.4-9.2,15.2-22,15.2-36.1V60c0-4-3.2-7.2-7.2-7.2c-20.6,0-38.4,12.5-46.2,30.2c-11.5-18.1-31.8-30.2-54.8-30.2
		c-35.8,0-65,29.1-65,65c0,20.4,9.5,38.6,24.2,50.5H210.4c-4,0-7.2,3.2-7.2,7.2c0,35.8,29.1,65,65,65h7.2v14.4h-65
		c-4,0-7.2,3.2-7.2,7.2v202.1c0,4,3.2,7.2,7.2,7.2 M419.7,254.9h-14.4v-14.4h14.4V254.9z M390.8,240.4v14.4h-72.2v-14.4H390.8z
		 M419.7,103.3c0-17.4,12.4-32,28.9-35.4v6.5c0,17.4-12.4,32-28.9,35.4V103.3z M304.2,117.7c0-27.9,22.7-50.5,50.5-50.5
		s50.5,22.7,50.5,50.5s-22.7,50.5-50.5,50.5S304.2,145.6,304.2,117.7z M218.1,182.7h273.2c-3.5,24.5-24.6,43.3-50,43.3H268.1
		C242.7,226,221.7,207.2,218.1,182.7z M289.8,240.4h14.4v14.4h-14.4V240.4z M455.8,485.8h-14.4c-9.4,0-17.4-6-20.4-14.4h55.3
		C473.2,479.8,465.2,485.8,455.8,485.8z M491.9,457H217.6V269.3h274.3V457z"/>
	<path d="M333.1,363.1c0,11.9,9.7,21.7,21.7,21.7s21.7-9.7,21.7-21.7s-9.7-21.7-21.7-21.7c-3.3,0-6.5,0.8-9.3,2.2l-21.7-21.7
		l-10.2,10.2l21.7,21.7C333.9,356.7,333.1,359.8,333.1,363.1z M362,363.1c0,4-3.2,7.2-7.2,7.2s-7.2-3.2-7.2-7.2c0-4,3.2-7.2,7.2-7.2
		S362,359.2,362,363.1z"/>
	<path fill="#BC986A" d="M354.8,81.6v14.4c11.9,0,21.7,9.7,21.7,21.7h14.4C390.8,97.8,374.7,81.6,354.8,81.6z"/>
</g>
<g id="Ebene_2">
	<g>
		<path fill="#FFFFFF" d="M396.4,360.5L371.7,335c-4.5-4.5-10.6-7-17-7H111.2l6.5,32.5H396.4z"/>
		<path fill="#BC986A" d="M72,456c-26.5,0-48.8-21.6-48.8-48v-32h337.9l-4.1-15.5H50.5L76.3,335c4.5-4.5,10.6-7,17-7h258l-7.9-34.1
			L327,275.7c-5.1-5.1-11.5-8.6-18.3-10.3L284.3,241c-16.1-16.1-37.5-25-60.3-25s-44.2,8.9-60.3,25l-24.4,24.4
			c-6.8,1.8-13.2,5.2-18.3,10.3l-37.7,37.7c-6.8,1.8-13.2,5.2-18.3,10.3L28.7,360H16c-4.4,0-8,3.6-8,8v40c0,32.6,24.5,59.5,56,63.4
			V496c0,4.4,3.6,8,8,8l299,0c13.2,0,13-2.8,13-16l-6.5-31.6c-0.5,0-1.2,0-1.6,0L72,456z M175,252.3c13.1-13.1,30.5-20.3,49-20.3
			c18.5,0,35.9,7.2,49,20.3l11.7,11.7H163.3L175,252.3z M132.3,287c4.5-4.5,10.6-7,17-7h149.5c6.3,0,12.5,2.6,17,7l25,25H107.3
			L132.3,287z M368,488H80v-16h288V488z"/>
		<path fill="#FFFFFF" d="M201.1,376l176.4,80c25.8-0.8,46.6-22,46.6-48v-32H201.1z"/>
	</g>
	<g>
		<path fill="#FFFFFF" d="M23.2,376.5v32c0,26,20.9,46.7,46.7,47.5l16.3-80L23.2,376.5z"/>
		<path fill="#BC986A" d="M431.2,360.5h-12.7l-36.3-36.3c-5.1-5.1-11.5-8.6-18.3-10.3l-37.7-37.7c-5.1-5.1-11.5-8.6-18.3-10.3
			l-24.4-24.4c-16.1-16.1-37.5-25-60.3-25s-44.2,8.9-60.3,25l-24.4,24.4c-6.8,1.8-13.2,5.2-18.3,10.3l-17,17L96.1,328l257.9,0.5
			c6.3,0,12.5,2.6,17,7l25,25H89.4L86.1,376l337.1,0.5v32c0,26.5-21.5,48-48,48h-304c-0.5,0-1,0-1.4,0l-6.6,32c0,13.2-0.2,16,13,16
			l299,0c4.4,0,8-3.6,8-8v-24.6c31.5-4,56-30.9,56-63.4v-40C439.2,364.1,435.6,360.5,431.2,360.5z M174.2,252.8
			c13.1-13.1,30.5-20.3,49-20.3c18.5,0,35.9,7.2,49,20.3l11.7,11.7H162.5L174.2,252.8z M106.5,312.5l25-25c4.5-4.5,10.6-7,17-7
			h149.5c6.3,0,12.5,2.6,17,7l25,25H106.5z M367.2,488.5h-288v-16h288V488.5z"/>
		<path fill="#FFFFFF" d="M92.4,328.5c-6.3,0-12.5,2.6-17,7l-25,25h38.9l6.7-32.5L92.4,328.5z"/>
	</g>
	<rect x="196" y="376.2" fill="#FFFFFF" width="31.2" height="79.8"/>
	<rect x="284.7" y="410.1" fill="#FFFFFF" width="70.1" height="35.6"/>
	<polygon fill="#FFFFFF" points="222.6,312 190.6,312 190.6,280.5 222.6,280.5 	"/>
	<path fill="#FFFFFF" d="M283.3,263.9l-82.2,0.1v-25.6c0,0,43.9-2.1,50.6,0C263.7,242.1,283.3,263.9,283.3,263.9z"/>
</g>
</svg>
